<svg version="1.1" id="Layer_1" xmlns="http://www.w3.org/2000/svg" xmlns:xlink="http://www.w3.org/1999/xlink" x="0px" y="0px" viewBox="0 0 1072 785" style="enable-background:new 0 0 1072 785;" xml:space="preserve"><style type="text/css"> .st0{fill:none;stroke:#000000;stroke-miterlimit:10;} .st1{fill:none;stroke:#000000;stroke-width:1.4;stroke-miterlimit:10;} .st2{fill:none;stroke:#B3B3B3;stroke-miterlimit:10;} .st3{fill:#B3B3B3;stroke:#B3B3B3;stroke-miterlimit:10;} .st4{stroke:#B3B3B3;stroke-miterlimit:10;} </style><path class="st0" d="M404.2,307.2c-18.4,1.7-23.1-1.1-27.4-2.8c-4.1,10-12.1,18.8-23.1,24.3c-17.8,8.9-38,6.2-50.4-5.2 c-8.2,6.5-18.5,10.9-29.9,11.8c-10.6,0.8-20.6-1.5-29.3-5.9c-6.8,4.9-11.9,12-13.7,20.8c-2.1,10.1,0.4,20,6,27.7 c-7.3,6.1-12.2,15.1-12.7,25.4s3.6,19.7,10.4,26.4c-6.3,7.2-9.6,16.9-8.4,27.1s6.8,18.8,14.6,24.3c-5,8.1-6.7,18.2-3.8,28.1 s9.7,17.5,18.4,21.6c-3.7,8.8-3.7,19.1,0.7,28.4c4.5,9.3,12.5,15.6,21.7,18.4c-2.2,9.3-0.5,19.4,5.4,27.8 c5.9,8.4,14.8,13.4,24.3,14.6c-0.6,9.5,2.6,19.2,9.8,26.6c7.2,7.4,16.9,10.8,26.4,10.4c0.9,9.5,5.7,18.6,14,24.6 c8.3,6.1,18.4,7.9,27.7,6c2.5,9.2,8.7,17.4,17.9,22c9.2,4.6,19.4,4.8,28.3,1.4c4,8.7,11.4,15.7,21.2,18.8s19.9,1.6,28.2-3.3 c5.3,7.9,13.8,13.7,24,15.1c10.2,1.5,20-1.7,27.3-7.8c6.5,6.9,15.9,11.2,26.2,11s19.4-4.9,25.6-12.1c7.6,5.8,17.5,8.5,27.6,6.6 s18.4-8,23.3-16.1c8.4,4.5,18.6,5.5,28.3,2s16.8-11,20.4-19.7c9,3,19.3,2.4,28.3-2.6s14.8-13.5,16.9-22.8c9.4,1.5,19.4-0.7,27.5-7.2 c8-6.4,12.4-15.7,12.9-25.2c9.6,0,19-3.9,25.9-11.6c6.9-7.6,9.7-17.5,8.7-27c9.4-1.6,18.2-6.9,23.7-15.6c5.6-8.7,6.7-18.9,4.2-28.1 c9-3.1,16.8-9.8,20.8-19.3s3.5-19.7-0.5-28.4c8.4-4.5,15-12.4,17.4-22.4c2.5-10,0.3-20-5.1-27.9c7.5-5.8,12.7-14.7,13.5-24.9 c0.8-10.3-3-19.8-9.6-26.7c6.5-7,10.1-16.6,9.3-26.8c-0.9-10.3-6.2-19.1-13.8-24.8c5.3-7.9,7.4-18,4.8-28 c-2.5-10-9.2-17.8-17.6-22.2c3.9-8.7,4.3-19,0.2-28.4c-4.2-9.4-12-16-21-19.1c2.5-9.2,1.1-19.4-4.5-28s-14.4-13.9-23.8-15.4 c0.9-9.5-2-19.3-9-26.9s-16.5-11.4-26-11.3c-0.7-9.5-5.1-18.7-13.3-25.1c-8.1-6.3-18.1-8.5-27.5-6.9c-2.2-9.3-8.1-17.7-17.2-22.6 c-9-4.9-19.3-5.5-28.3-2.3c-3.7-8.8-10.9-16.1-20.6-19.5c-9.7-3.4-19.9-2.2-28.3,2.3c-5.1-8.1-13.3-14.1-23.5-15.9 c-10.1-1.8-20,1.1-27.5,6.9c-6.3-7.1-15.5-11.7-25.8-11.8c-8.1-0.1-15.5,2.6-21.4,7.2c-3.2,6.4-8.3,11.9-14.6,15.9 c3.9,5.3,6.3,11.5,6.9,18.3c1.3,16.8-9.5,31.9-25.6,38.2c1.9,2.3,3.5,4.8,4.8,7.6c12.2,24.4-0.2,55.2-27.7,69 c-6.9,3.5-14.1,5.5-21.1,6.2c-0.2,19.2-12.2,38.5-32.3,48.6C417,304.4,410.6,306.3,404.2,307.2"></path><path class="st1" d="M686.9,371.1c-8.3,0-15.1-6.7-15.1-15.1c0-8.3,6.8-15.1,15.1-15.1S702,347.7,702,356S695.2,371.1,686.9,371.1"></path><path class="st1" d="M786.2,474.7c-8.3,0-15.1-6.8-15.1-15.1c0-8.3,6.8-15.1,15.1-15.1s15.1,6.7,15.1,15.1 C801.3,467.9,794.5,474.7,786.2,474.7"></path><path class="st1" d="M913.8,628.1c-8.3,0-15.1-6.8-15.1-15.1s6.8-15.1,15.1-15.1s15.1,6.8,15.1,15.1S922.2,628.1,913.8,628.1"></path><path class="st1" d="M561.9,296.8c-8.4,0-15.1-6.7-15.1-15.1c0-8.3,6.7-15.1,15.1-15.1c8.3,0,15.1,6.8,15.1,15.1 S570.2,296.8,561.9,296.8"></path><path class="st1" d="M660.2,574.4c-8.4,0-15.1-6.8-15.1-15.1s6.7-15.1,15.1-15.1c8.3,0,15.1,6.8,15.1,15.1 C675.4,567.6,668.6,574.4,660.2,574.4"></path><path class="st1" d="M645,474.7c-8.3,0-15.1-6.8-15.1-15.1c0-8.3,6.8-15.1,15.1-15.1s15.1,6.7,15.1,15.1S653.3,474.7,645,474.7"></path><path class="st1" d="M502.9,595.7c-8.3,0-15.1-6.8-15.1-15.1s6.8-15.1,15.1-15.1c8.3,0,15.1,6.8,15.1,15.1S511.3,595.7,502.9,595.7"></path><path class="st2" d="M682,628.1l-95-46.8l216,30l60.6-143.8L682,628.1z"></path><path class="st2" d="M768.5,647.8L652,661.3l76.7,20.2L768.5,647.8z"></path><path class="st2" d="M904,665.5l-100.9-56.3L749,494.6l-67,133.5l123-18.2"></path><path class="st2" d="M851.3,517.9l116.4,36.8l-137.4,13.9L851.3,517.9z"></path><path class="st2" d="M749,302.4l179.8,200.7l-64.5-138.7L749,302.4z"></path><path class="st2" d="M868.2,338.4l23.8-3.1l9.1-24.3l99.1,161.7"></path><path class="st2" d="M947.5,268.4l77.3,82.7l-41.8-74l-37.1-9.7"></path><path class="st2" d="M1000.2,472.7L819.5,313.4l10-47.3L1000.2,472.7z"></path><path class="st2" d="M722,195.4l78.9,28l-51.9,79L722,195.4z"></path><path class="st2" d="M641,203.4l81-8l-42.5-67"></path><path class="st2" d="M679.5,128.4l-38.5,75"></path><path class="st2" d="M499.4,170L641,203.4l23,112L499.4,170z"></path><path class="st2" d="M404.6,223.9l83,67.5l-1.5-102L404.6,223.9z"></path><path class="st2" d="M456.6,166.4l-30.5,27.5l30.5,32.5V166.4z"></path><path class="st2" d="M389.1,165.4L376,277.7l51.4-97.9L389.1,165.4z"></path><path class="st2" d="M446.6,89.4l-21,56l61-28L446.6,89.4z"></path><path class="st2" d="M486.6,117.4l93.7-15.5"></path><path class="st2" d="M319.6,78.4l-33,12.5l67,6.5L319.6,78.4z"></path><path class="st2" d="M170.6,164.4l94.5,73"></path><path class="st2" d="M191.6,221.9l5.5,33.5l53-55L191.6,221.9z"></path><path class="st2" d="M189.6,352.9l54-76l59.2,48l5.6-92l-0.3-43.5l40.5,26l-40.5,20l-43,2l43-48l-14-24.5"></path><path class="st2" d="M302.8,324.9l-66.5,53l206.1,96.8"></path><path class="st2" d="M302.8,324.9L445,475.1l-205.2,7.5L302.8,324.9z"></path><path class="st2" d="M237.8,482.6l-107.2,24.7l-81.5-87"></path><path class="st2" d="M73.6,488.8L182.8,616l-8.2-133.2L73.6,488.8z"></path><path class="st2" d="M297.6,563.3l49.5-37l58,58L297.6,563.3z"></path><path class="st2" d="M326.8,604.5l-7,64.3l25.8-36L326.8,604.5z"></path><path class="st2" d="M306.7,620l124.6,42l-133.7-98.7L306.7,620z"></path><path class="st2" d="M430.3,661.8l173.1-41.7l-20.2,113.7L430.3,661.8z"></path><path class="st2" d="M652,661.3l-118.5,34.3l87.8-6.1L652,661.3L652,661.3z"></path><path class="st2" d="M288,701.7l63.6,18.8l-27.1-24.1L288,701.7z"></path><path class="st2" d="M928.8,503.1l-64-34.8l-0.5-103.9L928.8,503.1z"></path><path class="st2" d="M927.1,429.4l-18,19.5l40.5,19.5L927.1,429.4z"></path><path class="st2" d="M1007.8,617.5l8.2-34.5l6,15L1007.8,617.5z"></path><path class="st2" d="M749,302.4L627.3,133l97.8,20.2l-25.6-99.1l-73.3,73.5"></path><path class="st2" d="M477.5,513.3l-179.9,50l-42-30L477.5,513.3z"></path><path class="st2" d="M432.1,662.5l-1.9,51.1l50.2,13.1L432.1,662.5"></path><path class="st2" d="M481,724.4l122.4-104.3l-72.6,75.4l-50.4,31.2"></path><path class="st3" d="M980.4,414.1c2-2.1,1.9-5.4-0.2-7.4c-2.1-2-5.4-1.9-7.4,0.2s-1.9,5.4,0.2,7.4 C975.1,416.2,978.4,416.2,980.4,414.1z"></path><path class="st3" d="M1004.1,475.7c2-2.1,1.9-5.4-0.2-7.4c-2.1-2-5.4-1.9-7.4,0.2s-1.9,5.4,0.2,7.4 C998.7,477.9,1002.1,477.8,1004.1,475.7z"></path><path class="st3" d="M483.9,727.3c0,1.6-1.3,2.9-2.9,2.9s-2.9-1.3-2.9-2.9s1.3-2.9,2.9-2.9S483.9,725.7,483.9,727.3z"></path><path class="st3" d="M533.6,695.6c0,1.6-1.3,2.9-2.9,2.9s-2.9-1.3-2.9-2.9s1.3-2.9,2.9-2.9S533.6,694,533.6,695.6z"></path><path class="st3" d="M624,689.3c0,1.6-1.3,2.9-2.9,2.9s-2.9-1.3-2.9-2.9s1.3-2.9,2.9-2.9S624,687.7,624,689.3z"></path><path class="st3" d="M430.2,708.9c-1.3,0-2.4,1.1-2.4,2.4c0,1.3,1.1,2.4,2.4,2.4s2.4-1.1,2.4-2.4S431.5,708.9,430.2,708.9z"></path><path class="st3" d="M584.1,101.7c0-2.1-1.7-3.8-3.8-3.8s-3.8,1.7-3.8,3.8c0,2.1,1.7,3.9,3.8,3.9S584.1,103.9,584.1,101.7z"></path><path class="st3" d="M487,112.4c-2.4,0-4.3,1.9-4.3,4.3s1.9,4.3,4.3,4.3s4.3-1.9,4.3-4.3S489.3,112.4,487,112.4z"></path><path class="st3" d="M863.6,359.8c-2.4,0-4.4,2-4.4,4.4s2,4.4,4.4,4.4s4.4-2,4.4-4.4S866,359.8,863.6,359.8z"></path><path class="st3" d="M732.7,680.7c0,2.2-1.8,4-4,4s-4-1.8-4-4s1.8-4,4-4S732.7,678.5,732.7,680.7z"></path><path class="st3" d="M587.6,733.2c0,2.5-2,4.5-4.5,4.5s-4.5-2-4.5-4.5s2-4.5,4.5-4.5S587.6,730.7,587.6,733.2z"></path><path class="st3" d="M604,616.3c-2.2,0-4,1.8-4,4s1.8,4,4,4s4-1.8,4-4S606.2,616.3,604,616.3z"></path><path class="st3" d="M651.8,656.6c-2.2,0-4,1.8-4,4s1.8,4,4,4s4-1.8,4-4C655.8,658.4,654,656.6,651.8,656.6z"></path><path class="st3" d="M456.4,164.1c-1.6,0-2.8,1.3-2.8,2.8c0,1.6,1.3,2.8,2.8,2.8c1.6,0,2.8-1.3,2.8-2.8 C459.2,165.4,457.9,164.1,456.4,164.1z"></path><path class="st3" d="M807.1,609.9c0,1.7-1.4,3.1-3.1,3.1s-3.1-1.4-3.1-3.1c0-1.7,1.4-3.1,3.1-3.1S807.1,608.2,807.1,609.9z"></path><path class="st3" d="M584,577.5c-1.7,0-3.1,1.4-3.1,3.1s1.4,3.1,3.1,3.1c1.7,0,3.1-1.4,3.1-3.1S585.7,577.5,584,577.5z"></path><path class="st3" d="M686.9,627.8c0,2.4-2,4.4-4.4,4.4s-4.4-2-4.4-4.4s2-4.4,4.4-4.4S686.9,625.4,686.9,627.8z"></path><path class="st3" d="M868.1,335c-1.6,0-2.9,1.3-2.9,2.8c0,1.6,1.3,2.9,2.9,2.9s2.8-1.3,2.8-2.9C871,336.3,869.7,335,868.1,335z"></path><path class="st3" d="M833.8,266.5c0-2.4-1.9-4.3-4.3-4.3c-2.4,0-4.3,1.9-4.3,4.3s1.9,4.3,4.3,4.3 C831.9,270.8,833.8,268.9,833.8,266.5z"></path><path class="st3" d="M748.8,300c-2.3,0-4.2,1.9-4.2,4.2s1.9,4.2,4.2,4.2s4.2-1.9,4.2-4.2C753.1,301.8,751.2,300,748.8,300z"></path><path class="st3" d="M967.7,552.4c-1.6,0-2.9,1.3-2.9,2.9c0,1.6,1.3,2.9,2.9,2.9c1.6,0,2.9-1.3,2.9-2.9S969.3,552.4,967.7,552.4z"></path><path class="st3" d="M819.8,309.2c-2,0-3.7,1.6-3.7,3.7c0,2,1.6,3.7,3.7,3.7c2,0,3.7-1.6,3.7-3.7 C823.5,310.8,821.8,309.2,819.8,309.2z"></path><path class="st3" d="M641.4,199c-2,0-3.6,1.6-3.6,3.6s1.6,3.6,3.6,3.6s3.6-1.6,3.6-3.6S643.4,199,641.4,199z"></path><path class="st3" d="M719,196c0,1.8,1.4,3.2,3.2,3.2s3.2-1.4,3.2-3.2s-1.4-3.2-3.2-3.2S719,194.2,719,196z"></path><path class="st3" d="M726,158.4c2.7,0,4.9-2.2,4.9-4.9s-2.2-4.9-4.9-4.9s-4.9,2.2-4.9,4.9S723.3,158.4,726,158.4z"></path><path class="st3" d="M626.2,137.4c2.7,0,4.9-2.2,4.9-4.9s-2.2-4.9-4.9-4.9s-4.9,2.2-4.9,4.9S623.5,137.4,626.2,137.4z"></path><path class="st3" d="M238.9,479.1c-1.5,0-2.7,1.2-2.7,2.7s1.2,2.7,2.7,2.7s2.7-1.2,2.7-2.7C241.6,480.3,240.4,479.1,238.9,479.1z"></path><path class="st3" d="M301.8,563.5c0,2.3-1.9,4.2-4.2,4.2c-2.3,0-4.2-1.9-4.2-4.2s1.9-4.2,4.2-4.2S301.8,561.2,301.8,563.5z"></path><path class="st3" d="M255,527.1c-2.4,0-4.3,1.8-4.3,4.1c0,2.2,1.9,4.1,4.3,4.1c2.4,0,4.3-1.8,4.3-4.1 C259.3,528.9,257.4,527.1,255,527.1z"></path><path class="st3" d="M241,378.5c0,2.7-2.1,4.8-4.8,4.8s-4.8-2.1-4.8-4.8s2.1-4.8,4.8-4.8S241,375.8,241,378.5z"></path><path class="st3" d="M243.4,274.1c-2,0-3.6,1.6-3.6,3.6s1.6,3.6,3.6,3.6s3.6-1.6,3.6-3.6C246.9,275.7,245.3,274.1,243.4,274.1z"></path><path class="st3" d="M186.3,352.2c-0.1,2,1.4,3.7,3.3,3.8c2,0.1,3.7-1.4,3.8-3.4s-1.4-3.7-3.3-3.8 C188.1,348.8,186.4,350.3,186.3,352.2z"></path><path class="st3" d="M179.1,616.1c-0.1,2,1.4,3.7,3.3,3.8c2,0.1,3.7-1.4,3.8-3.4s-1.4-3.7-3.3-3.8 C180.9,612.7,179.2,614.2,179.1,616.1z"></path><path class="st3" d="M803.6,220.5c-1.7-1-3.9-0.3-4.9,1.4s-0.3,3.9,1.4,4.9s3.9,0.3,4.9-1.4C805.9,223.6,805.3,221.5,803.6,220.5z"></path><path class="st3" d="M829.9,150.2c-1.8,0.8-2.6,2.9-1.8,4.7s2.9,2.6,4.7,1.8s2.6-2.9,1.8-4.7C833.9,150.2,831.7,149.4,829.9,150.2z"></path><path class="st3" d="M959.7,373.1c-0.8-1.8-3-2.6-4.8-1.7c-1.8,0.8-2.6,3-1.7,4.8c0.8,1.8,3,2.6,4.8,1.7S960.6,374.9,959.7,373.1z"></path><path class="st3" d="M867.5,466.3c-0.8-1.8-3-2.6-4.8-1.7c-1.8,0.8-2.6,3-1.7,4.8c0.8,1.8,3,2.6,4.8,1.7 C867.6,470.2,868.3,468.1,867.5,466.3z"></path><path class="st3" d="M1068.2,392.3c-0.8-1.8-3-2.6-4.8-1.7c-1.8,0.8-2.6,3-1.7,4.8c0.8,1.8,3,2.6,4.8,1.7 C1068.3,396.2,1069.1,394,1068.2,392.3z"></path><path class="st3" d="M126.7,510.7c1.8,2.3,5.1,2.7,7.4,1c2.3-1.8,2.7-5.1,1-7.4c-1.8-2.3-5-2.7-7.3-1 C125.4,505.1,124.9,508.4,126.7,510.7z"></path><path class="st3" d="M894.9,334.2c-0.9-1.7-3.1-2.4-4.9-1.5c-1.7,0.9-2.4,3.1-1.4,4.9c0.9,1.7,3.1,2.4,4.9,1.5 C895.2,338.1,895.8,335.9,894.9,334.2z"></path><path class="st3" d="M901.3,307.7c-2-0.1-3.7,1.4-3.8,3.3c-0.1,2,1.4,3.7,3.3,3.8c2,0.1,3.7-1.3,3.8-3.3 C904.8,309.6,903.3,307.9,901.3,307.7z"></path><path class="st3" d="M836.2,568c-1,2.7-4.1,4.1-6.8,3c-2.7-1-4-4.1-3-6.8s4.1-4.1,6.8-3S837.3,565.3,836.2,568z"></path><path class="st3" d="M478.1,508.2c-2.5,0-4.5,2-4.5,4.5s2,4.5,4.5,4.5s4.5-2,4.5-4.5S480.6,508.2,478.1,508.2z"></path><path class="st3" d="M502.9,170.3c0-1.9-1.5-3.4-3.4-3.4s-3.4,1.3-3.4,3.2s1.5,3.6,3.4,3.6S502.9,172.2,502.9,170.3z"></path><path class="st3" d="M667,314.8c0,1.9-1.5,3.4-3.4,3.4s-3.4-1.5-3.4-3.4s1.5-3.4,3.4-3.4S667,312.9,667,314.8z"></path><path class="st3" d="M488.2,287c-2,0-3.6,1.6-3.6,3.6s1.6,3.6,3.6,3.6s3.6-1.6,3.6-3.6C491.9,288.7,490.2,287,488.2,287z"></path><path class="st3" d="M928.9,507.5c2.9,0,5.2-2.3,5.2-5.2c0-2.9-2.3-5.2-5.2-5.2s-5.2,2.3-5.2,5.2S926,507.5,928.9,507.5z"></path><path class="st3" d="M265.4,240.9c1.8,0,3.2-1.5,3.2-3.2c0-1.8-1.4-3.2-3.2-3.2s-3.2,1.5-3.2,3.2 C262.1,239.4,263.6,240.9,265.4,240.9z"></path><path class="st3" d="M308.4,187.3c-1.3,0-2.4,1.1-2.4,2.4c0,1.3,1.1,2.4,2.4,2.4s2.4-1.1,2.4-2.4S309.7,187.3,308.4,187.3z"></path><path class="st3" d="M425.1,177.4c-1.3,0-2.4,1.1-2.4,2.4c0,1.3,1.1,2.4,2.4,2.4s2.4-1.1,2.4-2.4 C427.4,178.5,426.4,177.4,425.1,177.4z"></path><path class="st3" d="M310.1,620.3c0,1.8-1.5,3.3-3.3,3.3s-3.3-1.5-3.3-3.3s1.5-3.3,3.3-3.3S310.1,618.5,310.1,620.3z"></path><path class="st3" d="M444.9,472.1c-1.4,0-2.6,1.1-2.6,2.6c0,1.4,1.1,2.6,2.6,2.6c1.4,0,2.6-1.1,2.6-2.6S446.3,472.1,444.9,472.1z"></path><path class="st3" d="M319.8,665.3c-1.6,0-2.8,1.3-2.8,2.8c0,1.6,1.3,2.8,2.8,2.8c1.6,0,2.8-1.3,2.8-2.8 C322.7,666.6,321.4,665.3,319.8,665.3z"></path><path class="st3" d="M303.1,320.3c-2.6,0-4.8,2.1-4.8,4.7s2.1,4.7,4.8,4.7c2.6,0,4.8-2.1,4.8-4.7S305.8,320.3,303.1,320.3z"></path><path class="st3" d="M171.9,160.3c-2.6,0-4.7,2.1-4.7,4.7c0,2.6,2.1,4.7,4.7,4.7c2.6,0,4.7-2.1,4.7-4.7 C176.6,162.4,174.5,160.3,171.9,160.3z"></path><path class="st3" d="M351.7,215.5c0,2.3-1.8,4.1-4.1,4.1s-4.1-1.8-4.1-4.1s1.8-4.1,4.1-4.1S351.7,213.2,351.7,215.5z"></path><path class="st3" d="M393.4,165.4c0,2.3-1.8,4.1-4.1,4.1c-2.3,0-4.1-1.8-4.1-4.1s1.8-4.1,4.1-4.1 C391.6,161.3,393.4,163.1,393.4,165.4z"></path><path class="st3" d="M460.5,225.8c0,2.3-1.8,4.1-4.1,4.1s-4.1-1.8-4.1-4.1s1.8-4.1,4.1-4.1S460.5,223.5,460.5,225.8z"></path><path class="st3" d="M308.4,232.9c-1.3,0-2.4,1.1-2.4,2.4c0,1.3,1.1,2.4,2.4,2.4s2.4-1.1,2.4-2.4S309.7,232.9,308.4,232.9z"></path><path class="st2" d="M581,733.9l40.2-44.4l107.5-8L581,733.9z"></path><path class="st2" d="M530.8,695.5l0.9,38.5l49.3-0.1L530.8,695.5z"></path><path class="st2" d="M728.1,680.2l239.6-125.5l-164.6,54.5"></path><path class="st2" d="M805,225.4l14.5,88l45.8,24.5"></path><path class="st3" d="M202.4,448.9c0,2.9-2.3,5.2-5.2,5.2s-5.2-2.3-5.2-5.2c0-2.9,2.3-5.2,5.2-5.2S202.4,446,202.4,448.9z"></path><path class="st3" d="M740,749.9c0,2-1.6,3.6-3.6,3.6s-3.7-1.6-3.7-3.6s1.6-3.6,3.7-3.6C738.4,746.3,740,747.9,740,749.9z"></path><path class="st3" d="M368,746.3c0,2-1.6,3.6-3.6,3.6s-3.6-1.6-3.6-3.6s1.6-3.6,3.6-3.6S368,744.3,368,746.3z"></path><path class="st3" d="M436.9,662.5c0,2.6-2.1,4.8-4.8,4.8c-2.6,0-4.8-2.1-4.8-4.8s2.1-4.8,4.8-4.8S436.9,659.9,436.9,662.5z"></path><path class="st3" d="M7.3,554.3c0,2-1.6,3.6-3.6,3.6s-3.6-1.6-3.6-3.6s1.6-3.6,3.6-3.6C5.7,550.6,7.3,552.2,7.3,554.3z"></path><path class="st3" d="M919.1,220c0,2.9-2.3,5.2-5.2,5.2s-5.2-2.3-5.2-5.2s2.3-5.2,5.2-5.2S919.1,217.1,919.1,220z"></path><path class="st3" d="M704.7,54.1c0,2.9-2.3,5.2-5.2,5.2s-5.2-2.3-5.2-5.2s2.3-5.2,5.2-5.2C702.4,49,704.7,51.3,704.7,54.1z"></path><path class="st3" d="M971.3,608.4c0,2-1.6,3.6-3.6,3.6s-3.6-1.6-3.6-3.6s1.6-3.6,3.6-3.6C969.7,604.7,971.3,606.4,971.3,608.4z"></path><path class="st3" d="M956.4,714.8c0,2-1.6,3.6-3.6,3.6s-3.6-1.6-3.6-3.6s1.6-3.7,3.6-3.7C954.8,711.2,956.4,712.8,956.4,714.8z"></path><path class="st3" d="M147.1,294.2c0,2-1.6,3.6-3.7,3.6c-2,0-3.6-1.6-3.6-3.6s1.6-3.6,3.6-3.6C145.5,290.5,147.1,292.2,147.1,294.2z"></path><path class="st3" d="M582.2,347.5c0,2-1.6,3.6-3.6,3.6s-3.6-1.6-3.6-3.6s1.6-3.6,3.6-3.6C580.5,343.9,582.2,345.5,582.2,347.5z"></path><path class="st4" d="M1072,337.2h-9.5v-9.8h-1.1v9.8h-9.5v1h9.5v9.9h1.1v-9.9h9.5V337.2z"></path><path class="st4" d="M786.2,665.1h-9.5v-9.8h-1.1v9.8h-9.5v1.1h9.5v9.8h1.1v-9.8h9.5V665.1z"></path><path class="st4" d="M346.8,309h-9.5v-9.8h-1.1v9.8h-9.5v1h9.5v9.9h1.1V310h9.5V309z"></path><path class="st4" d="M87.8,573.5h-9.4v-9.8h-1.2v9.8h-9.4v1h9.4v9.9h1.2v-9.9h9.4V573.5z"></path><path class="st3" d="M569,148.6c0,2.9-2.3,5.2-5.2,5.2s-5.2-2.3-5.2-5.2s2.3-5.2,5.2-5.2S569,145.7,569,148.6z"></path><path class="st1" d="M474,379.5c-8.3,0-15.1-6.8-15.1-15.1s6.8-15.1,15.1-15.1s15.1,6.7,15.1,15.1 C489.1,372.7,482.3,379.5,474,379.5"></path></svg>